# xmcd
#
# Track frame offsets: 
#        150
#        45151
#        90152
#        135153
#        180154
#        225155
#        270156
#        315157
#
# Disc length: 4779 seconds
#
# Revision: 2
# Processed by: cddbd v1.5.2PL0 Copyright (c) Steve Scherf et al.
# Submitted via: ExactAudioCopy v0.95b3
#
DISCID=3a12a908
DTITLE=Depeche Mode - Gigamix Of Mode - The Full Nantes Megamix
DYEAR=2001
DGENRE=Pop
TTITLE0=The 80 Minutes Medley I
TTITLE1=The 80 Minutes Medley II
TTITLE2=The 80 Minutes Medley III
TTITLE3=The 80 Minutes Medley IV
TTITLE4=The 80 Minutes Medley V
TTITLE5=The 80 Minutes Medley VI
TTITLE6=The 80 Minutes Medley VII
TTITLE7=The 80 Minutes Medley IIX
EXTD=YEAR: 2001 ID3G: 13
EXTT0=
EXTT1=
EXTT2=
EXTT3=
EXTT4=
EXTT5=
EXTT6=
EXTT7=
PLAYORDER=
